<svg xmlns="http://www.w3.org/2000/svg" viewBox="0 0 64 64">
  <rect x="2" y="2" width="60" height="60" rx="15" fill="#15a34a"/>
  <g transform="translate(10.900,43.021) scale(0.03768,-0.03768)"><path d="M209 698V0H69V698Z M877 -123 771 4Q727 -7 681 -7Q583 -7 501.0 39.0Q419 85 371.0 166.5Q323 248 323 351Q323 453 371.0 534.5Q419 616 501.0 662.0Q583 708 681 708Q780 708 861.5 662.0Q943 616 990.5 534.5Q1038 453 1038 351Q1038 258 998.5 181.5Q959 105 891 57L1051 -123ZM681 118Q744 118 792.0 146.5Q840 175 867.0 228.0Q894 281 894 351Q894 421 867.0 473.5Q840 526 792.0 554.0Q744 582 681 582Q618 582 569.5 554.0Q521 526 494.0 473.5Q467 421 467 351Q467 281 494.0 228.0Q521 175 569.5 146.5Q618 118 681 118Z" fill="#ffffff"/></g>
</svg>
